# xmcd
#
# Track frame offsets: 
#        150
#        14977
#        31633
#        40675
#        50741
#        60581
#        73807
#        85783
#        102977
#        113080
#        128651
#        142489
#        154707
#        165228
#        181306
#        190607
#
# Disc length: 2754 seconds
#
# Revision: 0
# Processed by: cddbd v1.4PL0 Copyright (c) Steve Scherf et al.
# Submitted via: ExactAudioCopy v0.95a2
#
DISCID=d60ac010
DTITLE=Various Artist - Country pisnicky z radia 3
DYEAR=1998
DGENRE=Country
TTITLE0=Jasi jen tak litam
TTITLE1=Kasperk
TTITLE2=Vuz do Tennesee
TTITLE3=Railroad Bill
TTITLE4=Kamarad
TTITLE5=Cesta k horam
TTITLE6=Cizince stuj
TTITLE7=Holka z Utahu
TTITLE8=Trampske perly
TTITLE9=Stari
TTITLE10=Skala
TTITLE11=Nedobytnej barak
TTITLE12=Do rana toulam
TTITLE13=Prisedni k nam do kruhu
TTITLE14=Nesnasim
TTITLE15=Praminek vlasu
EXTD=
EXTT0=
EXTT1=
EXTT2=
EXTT3=
EXTT4=
EXTT5=
EXTT6=
EXTT7=
EXTT8=
EXTT9=
EXTT10=
EXTT11=
EXTT12=
EXTT13=
EXTT14=
EXTT15=
PLAYORDER=
